<svg role="img" viewBox="0 0 200 200" xmlns="http://www.w3.org/2000/svg" id="Clerk--Streamline-Simple-Icons" height="200" width="200">
  <desc>
    Clerk Streamline Icon: https://streamlinehq.com
  </desc>
  <title>Clerk</title>
  <path d="m178.91666666666666 173.57500000000002 -24.008333333333333 -24.008333333333333a4.766666666666667 4.766666666666667 0 0 0 -5.833333333333333 -0.7000000000000001 57.116666666666674 57.116666666666674 0 0 1 -59.00833333333334 0 4.8 4.8 0 0 0 -5.833333333333333 0.7000000000000001l-24.008333333333333 24.008333333333333a4.8 4.8 0 0 0 -0.8583333333333334 5.75 4.75 4.75 0 0 0 1.3833333333333335 1.55 100 100 0 0 0 117.60833333333333 0 4.833333333333333 4.833333333333333 0 0 0 1.9916666666666667 -3.5250000000000004 4.8 4.8 0 0 0 -1.4333333333333333 -3.7750000000000004Zm0.01666666666666667 -147.23333333333335 -24 24a4.741666666666666 4.741666666666666 0 0 1 -5.841666666666667 0.7000000000000001A57.14166666666667 57.14166666666667 0 0 0 72.7 67.33333333333334a57.18333333333334 57.18333333333334 0 0 0 -10.183333333333334 30.76666666666667 57.16666666666667 57.16666666666667 0 0 0 8.15 31.366666666666667 4.775 4.775 0 0 1 -0.6916666666666668 5.825l-24.008333333333333 24a4.725 4.725 0 0 1 -7.2 -0.525A99.94166666666668 99.94166666666668 0 0 1 56.425000000000004 22.500000000000004a99.91666666666667 99.91666666666667 0 0 1 121.97500000000001 -3.3750000000000004 4.716666666666667 4.716666666666667 0 0 1 1.9333333333333336 3.4833333333333334 4.75 4.75 0 0 1 -1.4000000000000001 3.733333333333334Zm-59.31666666666668 102.175a28.558333333333337 28.558333333333337 0 1 0 0 -57.116666666666674 28.558333333333337 28.558333333333337 0 0 0 0 57.116666666666674Z" fill="#ffffff" stroke-width="8.3333"></path>
</svg>