<svg width="26" height="26" viewBox="0 0 26 26" fill="none" xmlns="http://www.w3.org/2000/svg">
<mask id="path-1-inside-1_68_162" fill="white">
<path d="M17.6199 3.70819C17.8005 3.70819 17.947 3.56169 17.947 3.38099C17.947 3.2003 17.8005 3.0538 17.6199 3.0538V3.70819ZM16.8564 3.0538C16.6757 3.0538 16.5292 3.2003 16.5292 3.38099C16.5292 3.56169 16.6757 3.70819 16.8564 3.70819V3.0538ZM12.2757 3.70819C12.4564 3.70819 12.6029 3.56169 12.6029 3.38099C12.6029 3.2003 12.4564 3.0538 12.2757 3.0538V3.70819ZM11.5123 3.0538C11.3315 3.0538 11.1851 3.2003 11.1851 3.38099C11.1851 3.56169 11.3315 3.70819 11.5123 3.70819V3.0538ZM14.8932 0.327193C14.8932 0.146491 14.7467 0 14.5661 0C14.3854 0 14.2389 0.146491 14.2389 0.327193H14.8932ZM14.2389 1.09064C14.2389 1.27134 14.3854 1.41784 14.5661 1.41784C14.7467 1.41784 14.8932 1.27134 14.8932 1.09064H14.2389ZM14.8932 5.67134C14.8932 5.49065 14.7467 5.34415 14.5661 5.34415C14.3854 5.34415 14.2389 5.49065 14.2389 5.67134H14.8932ZM14.2389 6.43479C14.2389 6.61549 14.3854 6.76199 14.5661 6.76199C14.7467 6.76199 14.8932 6.61549 14.8932 6.43479H14.2389ZM16.9569 1.45288C17.0847 1.3251 17.0847 1.11794 16.9569 0.99016C16.8291 0.862384 16.622 0.862384 16.4942 0.99016L16.9569 1.45288ZM15.9541 1.53025C15.8263 1.65802 15.8263 1.86519 15.9541 1.99297C16.0819 2.12074 16.289 2.12074 16.4168 1.99297L15.9541 1.53025ZM13.178 5.23173C13.3058 5.10395 13.3058 4.89681 13.178 4.76903C13.0502 4.64125 12.8431 4.64125 12.7153 4.76903L13.178 5.23173ZM12.1752 5.30912C12.0474 5.4369 12.0474 5.64403 12.1752 5.77181C12.303 5.89959 12.5102 5.89959 12.6379 5.77181L12.1752 5.30912ZM12.6379 0.99016C12.5102 0.862384 12.303 0.862384 12.1752 0.99016C12.0474 1.11794 12.0474 1.3251 12.1752 1.45288L12.6379 0.99016ZM12.7153 1.99297C12.8431 2.12074 13.0502 2.12074 13.178 1.99297C13.3058 1.86519 13.3058 1.65802 13.178 1.53025L12.7153 1.99297ZM16.4172 4.76947C16.2894 4.64169 16.0823 4.64169 15.9545 4.76947C15.8267 4.89725 15.8267 5.10438 15.9545 5.23216L16.4172 4.76947ZM16.4942 5.77181C16.622 5.89959 16.8291 5.89959 16.9569 5.77181C17.0847 5.64403 17.0847 5.4369 16.9569 5.30912L16.4942 5.77181ZM17.6199 3.0538H16.8564V3.70819H17.6199V3.0538ZM12.2757 3.0538H11.5123V3.70819H12.2757V3.0538ZM14.2389 0.327193V1.09064H14.8932V0.327193H14.2389ZM14.2389 5.67134V6.43479H14.8932V5.67134H14.2389ZM16.4942 0.99016L15.9541 1.53025L16.4168 1.99297L16.9569 1.45288L16.4942 0.99016ZM12.7153 4.76903L12.1752 5.30912L12.6379 5.77181L13.178 5.23173L12.7153 4.76903ZM12.1752 1.45288L12.7153 1.99297L13.178 1.53025L12.6379 0.99016L12.1752 1.45288ZM15.9545 5.23216L16.4942 5.77181L16.9569 5.30912L16.4172 4.76947L15.9545 5.23216Z"/>
</mask>
<path d="M17.6199 3.70819C17.8005 3.70819 17.947 3.56169 17.947 3.38099C17.947 3.2003 17.8005 3.0538 17.6199 3.0538V3.70819ZM16.8564 3.0538C16.6757 3.0538 16.5292 3.2003 16.5292 3.38099C16.5292 3.56169 16.6757 3.70819 16.8564 3.70819V3.0538ZM12.2757 3.70819C12.4564 3.70819 12.6029 3.56169 12.6029 3.38099C12.6029 3.2003 12.4564 3.0538 12.2757 3.0538V3.70819ZM11.5123 3.0538C11.3315 3.0538 11.1851 3.2003 11.1851 3.38099C11.1851 3.56169 11.3315 3.70819 11.5123 3.70819V3.0538ZM14.8932 0.327193C14.8932 0.146491 14.7467 0 14.5661 0C14.3854 0 14.2389 0.146491 14.2389 0.327193H14.8932ZM14.2389 1.09064C14.2389 1.27134 14.3854 1.41784 14.5661 1.41784C14.7467 1.41784 14.8932 1.27134 14.8932 1.09064H14.2389ZM14.8932 5.67134C14.8932 5.49065 14.7467 5.34415 14.5661 5.34415C14.3854 5.34415 14.2389 5.49065 14.2389 5.67134H14.8932ZM14.2389 6.43479C14.2389 6.61549 14.3854 6.76199 14.5661 6.76199C14.7467 6.76199 14.8932 6.61549 14.8932 6.43479H14.2389ZM16.9569 1.45288C17.0847 1.3251 17.0847 1.11794 16.9569 0.99016C16.8291 0.862384 16.622 0.862384 16.4942 0.99016L16.9569 1.45288ZM15.9541 1.53025C15.8263 1.65802 15.8263 1.86519 15.9541 1.99297C16.0819 2.12074 16.289 2.12074 16.4168 1.99297L15.9541 1.53025ZM13.178 5.23173C13.3058 5.10395 13.3058 4.89681 13.178 4.76903C13.0502 4.64125 12.8431 4.64125 12.7153 4.76903L13.178 5.23173ZM12.1752 5.30912C12.0474 5.4369 12.0474 5.64403 12.1752 5.77181C12.303 5.89959 12.5102 5.89959 12.6379 5.77181L12.1752 5.30912ZM12.6379 0.99016C12.5102 0.862384 12.303 0.862384 12.1752 0.99016C12.0474 1.11794 12.0474 1.3251 12.1752 1.45288L12.6379 0.99016ZM12.7153 1.99297C12.8431 2.12074 13.0502 2.12074 13.178 1.99297C13.3058 1.86519 13.3058 1.65802 13.178 1.53025L12.7153 1.99297ZM16.4172 4.76947C16.2894 4.64169 16.0823 4.64169 15.9545 4.76947C15.8267 4.89725 15.8267 5.10438 15.9545 5.23216L16.4172 4.76947ZM16.4942 5.77181C16.622 5.89959 16.8291 5.89959 16.9569 5.77181C17.0847 5.64403 17.0847 5.4369 16.9569 5.30912L16.4942 5.77181ZM17.6199 3.0538H16.8564V3.70819H17.6199V3.0538ZM12.2757 3.0538H11.5123V3.70819H12.2757V3.0538ZM14.2389 0.327193V1.09064H14.8932V0.327193H14.2389ZM14.2389 5.67134V6.43479H14.8932V5.67134H14.2389ZM16.4942 0.99016L15.9541 1.53025L16.4168 1.99297L16.9569 1.45288L16.4942 0.99016ZM12.7153 4.76903L12.1752 5.30912L12.6379 5.77181L13.178 5.23173L12.7153 4.76903ZM12.1752 1.45288L12.7153 1.99297L13.178 1.53025L12.6379 0.99016L12.1752 1.45288ZM15.9545 5.23216L16.4942 5.77181L16.9569 5.30912L16.4172 4.76947L15.9545 5.23216Z" fill="white"/>
<path d="M17.6199 3.0538H15.1199V3.70819H17.6199H20.1199V3.0538H17.6199ZM16.8564 3.70819H19.3564V3.0538H16.8564H14.3564V3.70819H16.8564ZM12.2757 3.0538H9.7757V3.70819H12.2757H14.7757V3.0538H12.2757ZM11.5123 3.70819H14.0123V3.0538H11.5123H9.01225V3.70819H11.5123ZM14.2389 0.327193V2.82719H14.8932V0.327193V-2.17281H14.2389V0.327193ZM14.8932 1.09064V-1.40936H14.2389V1.09064V3.59064H14.8932V1.09064ZM14.2389 5.67134V8.17134H14.8932V5.67134V3.17134H14.2389V5.67134ZM14.8932 6.43479V3.93479H14.2389V6.43479V8.93479H14.8932V6.43479ZM16.4942 0.99016L14.7264 2.75788L15.1891 3.2206L16.9569 1.45288L18.7247 -0.314837L18.262 -0.777558L16.4942 0.99016ZM16.4168 1.99297L18.1846 0.225249L17.7219 -0.237471L15.9541 1.53025L14.1863 3.29796L14.649 3.76068L16.4168 1.99297ZM12.7153 4.76903L10.9476 6.53685L11.4103 6.99954L13.178 5.23173L14.9457 3.46391L14.483 3.00122L12.7153 4.76903ZM12.6379 5.77181L14.4057 4.004L13.9429 3.5413L12.1752 5.30912L10.4075 7.07694L10.8702 7.53963L12.6379 5.77181ZM12.1752 1.45288L13.943 3.22065L14.4057 2.75793L12.6379 0.99016L10.8702 -0.777607L10.4075 -0.314887L12.1752 1.45288ZM13.178 1.53025L11.4103 -0.23752L10.9475 0.2252L12.7153 1.99297L14.4831 3.76073L14.9458 3.29801L13.178 1.53025ZM15.9545 5.23216L17.7223 6.99993L18.185 6.53724L16.4172 4.76947L14.6495 3.0017L14.1868 3.4644L15.9545 5.23216ZM16.9569 5.30912L15.1891 3.54135L14.7264 4.00405L16.4942 5.77181L18.2619 7.53958L18.7246 7.07689L16.9569 5.30912ZM16.9569 1.45288L13.4214 -2.08271L13.4213 -2.08266L16.9569 1.45288ZM16.4942 0.99016L12.9587 -2.54543L12.9586 -2.54538L16.4942 0.99016ZM15.9541 1.53025L19.4896 5.06584L19.4896 5.06578L15.9541 1.53025ZM16.4168 1.99297L19.9523 5.52856L19.9523 5.5285L16.4168 1.99297ZM13.178 5.23173L16.7136 8.76726L16.7136 8.7672L13.178 5.23173ZM12.7153 4.76903L16.2508 8.30457L16.2509 8.30451L12.7153 4.76903ZM12.1752 5.30912L8.63968 1.77359L8.63962 1.77365L12.1752 5.30912ZM12.6379 5.77181L9.1024 2.23628L9.10234 2.23634L12.6379 5.77181ZM12.1752 1.45288L8.63968 4.98841L8.63969 4.98841L12.1752 1.45288ZM12.7153 1.99297L16.2508 -1.54257L16.2508 -1.54257L12.7153 1.99297ZM16.4172 4.76947L12.8817 8.305L12.8817 8.305L16.4172 4.76947ZM15.9545 5.23216L19.4901 1.69663L19.4901 1.69663L15.9545 5.23216ZM16.4942 5.77181L12.9586 9.30735L12.9586 9.30735L16.4942 5.77181ZM16.9569 5.30912L20.4924 1.77359L20.4924 1.77358L16.9569 5.30912ZM17.6199 3.70819V8.70819C20.562 8.70819 22.947 6.32311 22.947 3.38099H17.947H12.947C12.947 0.800267 15.0391 -1.29181 17.6199 -1.29181V3.70819ZM17.947 3.38099H22.947C22.947 0.438871 20.562 -1.9462 17.6199 -1.9462V3.0538V8.0538C15.0391 8.0538 12.947 5.96172 12.947 3.38099H17.947ZM16.8564 3.0538V-1.9462C13.9143 -1.9462 11.5292 0.438871 11.5292 3.38099H16.5292H21.5292C21.5292 5.96172 19.4371 8.0538 16.8564 8.0538V3.0538ZM16.5292 3.38099H11.5292C11.5292 6.32311 13.9143 8.70819 16.8564 8.70819V3.70819V-1.29181C19.4371 -1.29181 21.5292 0.800267 21.5292 3.38099H16.5292ZM12.2757 3.70819V8.70819C15.2179 8.70819 17.6029 6.32307 17.6029 3.38099H12.6029H7.60289C7.60289 0.80031 9.69494 -1.29181 12.2757 -1.29181V3.70819ZM12.6029 3.38099H17.6029C17.6029 0.438915 15.2179 -1.9462 12.2757 -1.9462V3.0538V8.0538C9.69494 8.0538 7.60289 5.96168 7.60289 3.38099H12.6029ZM11.5123 3.0538V-1.9462C8.57008 -1.9462 6.18506 0.438915 6.18506 3.38099H11.1851H16.1851C16.1851 5.96168 14.093 8.0538 11.5123 8.0538V3.0538ZM11.1851 3.38099H6.18506C6.18506 6.32307 8.57008 8.70819 11.5123 8.70819V3.70819V-1.29181C14.093 -1.29181 16.1851 0.80031 16.1851 3.38099H11.1851ZM14.8932 0.327193H19.8932C19.8932 -2.61498 17.5081 -5 14.5661 -5V0V5C11.9854 5 9.89324 2.90796 9.89324 0.327193H14.8932ZM14.5661 0V-5C11.624 -5 9.23886 -2.61498 9.23886 0.327193H14.2389H19.2389C19.2389 2.90796 17.1467 5 14.5661 5V0ZM14.2389 1.09064H9.23886C9.23886 4.03281 11.624 6.41784 14.5661 6.41784V1.41784V-3.58216C17.1467 -3.58216 19.2389 -1.49012 19.2389 1.09064H14.2389ZM14.5661 1.41784V6.41784C17.5081 6.41784 19.8932 4.03281 19.8932 1.09064H14.8932H9.89324C9.89324 -1.49012 11.9854 -3.58216 14.5661 -3.58216V1.41784ZM14.8932 5.67134H19.8932C19.8932 2.72922 17.5082 0.34415 14.5661 0.34415V5.34415V10.3442C11.9853 10.3442 9.89324 8.25207 9.89324 5.67134H14.8932ZM14.5661 5.34415V0.34415C11.6239 0.34415 9.23886 2.72922 9.23886 5.67134H14.2389H19.2389C19.2389 8.25207 17.1468 10.3442 14.5661 10.3442V5.34415ZM14.2389 6.43479H9.23886C9.23886 9.37691 11.6239 11.762 14.5661 11.762V6.76199V1.76199C17.1468 1.76199 19.2389 3.85407 19.2389 6.43479H14.2389ZM14.5661 6.76199V11.762C17.5082 11.762 19.8932 9.37691 19.8932 6.43479H14.8932H9.89324C9.89324 3.85407 11.9853 1.76199 14.5661 1.76199V6.76199ZM16.9569 1.45288L20.4923 4.98847C22.5728 2.90806 22.5728 -0.465024 20.4923 -2.54543L16.9569 0.99016L13.4214 4.52575C11.5965 2.70089 11.5965 -0.257854 13.4214 -2.08271L16.9569 1.45288ZM16.9569 0.99016L20.4923 -2.54543C18.412 -4.62575 15.0391 -4.62575 12.9587 -2.54543L16.4942 0.99016L20.0297 4.52575C18.2048 6.35052 15.2462 6.35052 13.4214 4.52575L16.9569 0.99016ZM15.9541 1.53025L12.4186 -2.00535C10.3381 0.0750625 10.3381 3.44815 12.4186 5.52856L15.9541 1.99297L19.4896 -1.54263C21.3145 0.282232 21.3145 3.24098 19.4896 5.06584L15.9541 1.53025ZM15.9541 1.99297L12.4186 5.52856C14.499 7.60888 17.8719 7.60888 19.9523 5.52856L16.4168 1.99297L12.8813 -1.54263C14.7061 -3.36739 17.6647 -3.36739 19.4896 -1.54263L15.9541 1.99297ZM13.178 5.23173L16.7136 8.7672C18.7939 6.68681 18.7939 3.31395 16.7136 1.23356L13.178 4.76903L9.64243 8.30451C7.81767 6.47968 7.81767 3.52108 9.64243 1.69625L13.178 5.23173ZM13.178 4.76903L16.7136 1.23356C14.6332 -0.846923 11.2601 -0.846923 9.17971 1.23356L12.7153 4.76903L16.2509 8.30451C14.426 10.1294 11.4673 10.1294 9.64243 8.30451L13.178 4.76903ZM12.1752 5.30912L8.63962 1.77365C6.55931 3.85403 6.55931 7.2269 8.63962 9.30729L12.1752 5.77181L15.7108 2.23634C17.5356 4.06117 17.5356 7.01976 15.7108 8.84459L12.1752 5.30912ZM12.1752 5.77181L8.63962 9.30729C10.72 11.3878 14.0931 11.3878 16.1735 9.30729L12.6379 5.77181L9.10234 2.23634C10.9272 0.411418 13.886 0.411418 15.7108 2.23634L12.1752 5.77181ZM12.6379 0.99016L16.1735 -2.54537C14.0931 -4.62577 10.7201 -4.62577 8.63968 -2.54537L12.1752 0.99016L15.7108 4.52569C13.8859 6.35054 10.9273 6.35054 9.1024 4.52569L12.6379 0.99016ZM12.1752 0.99016L8.63968 -2.54537C6.55929 -0.464977 6.55929 2.90802 8.63968 4.98841L12.1752 1.45288L15.7108 -2.08265C17.5356 -0.257808 17.5356 2.70085 15.7108 4.52569L12.1752 0.99016ZM12.7153 1.99297L9.17977 5.5285C11.2602 7.6089 14.6332 7.6089 16.7136 5.5285L13.178 1.99297L9.64249 -1.54257C11.4673 -3.36741 14.426 -3.36741 16.2508 -1.54257L12.7153 1.99297ZM13.178 1.99297L16.7136 5.5285C18.794 3.4481 18.794 0.075109 16.7136 -2.00529L13.178 1.53025L9.64249 5.06578C7.81765 3.24093 7.81765 0.282279 9.64249 -1.54257L13.178 1.99297ZM16.4172 4.76947L19.9528 1.23393C17.8724 -0.846466 14.4994 -0.846466 12.419 1.23393L15.9545 4.76947L19.4901 8.305C17.6652 10.1298 14.7065 10.1298 12.8817 8.305L16.4172 4.76947ZM15.9545 4.76947L12.419 1.23393C10.3386 3.31434 10.3386 6.6873 12.419 8.7677L15.9545 5.23216L19.4901 1.69663C21.3149 3.52147 21.3149 6.48016 19.4901 8.305L15.9545 4.76947ZM16.4942 5.77181L12.9586 9.30735C15.039 11.3877 18.412 11.3877 20.4924 9.30735L16.9569 5.77181L13.4213 2.23628C15.2462 0.411438 18.2049 0.411438 20.0297 2.23628L16.4942 5.77181ZM16.9569 5.77181L20.4924 9.30735C22.5728 7.22695 22.5728 3.85399 20.4924 1.77359L16.9569 5.30912L13.4213 8.84465C11.5965 7.01981 11.5965 4.06112 13.4213 2.23628L16.9569 5.77181ZM17.6199 3.0538V-1.9462H16.8564V3.0538V8.0538H17.6199V3.0538ZM16.8564 3.70819V8.70819H17.6199V3.70819V-1.29181H16.8564V3.70819ZM12.2757 3.0538V-1.9462H11.5123V3.0538V8.0538H12.2757V3.0538ZM11.5123 3.70819V8.70819H12.2757V3.70819V-1.29181H11.5123V3.70819ZM14.2389 0.327193H9.23886V1.09064H14.2389H19.2389V0.327193H14.2389ZM14.8932 1.09064H19.8932V0.327193H14.8932H9.89324V1.09064H14.8932ZM14.2389 5.67134H9.23886V6.43479H14.2389H19.2389V5.67134H14.2389ZM14.8932 6.43479H19.8932V5.67134H14.8932H9.89324V6.43479H14.8932ZM16.4942 0.99016L12.9586 -2.54538L12.4186 -2.00529L15.9541 1.53025L19.4896 5.06578L20.0297 4.5257L16.4942 0.99016ZM16.4168 1.99297L19.9523 5.5285L20.4924 4.98842L16.9569 1.45288L13.4213 -2.08266L12.8813 -1.54257L16.4168 1.99297ZM12.7153 4.76903L9.17977 1.2335L8.63968 1.77359L12.1752 5.30912L15.7108 8.84465L16.2508 8.30457L12.7153 4.76903ZM12.6379 5.77181L16.1735 9.30735L16.7136 8.76726L13.178 5.23173L9.64249 1.69619L9.1024 2.23628L12.6379 5.77181ZM12.1752 1.45288L8.63969 4.98841L9.17977 5.5285L12.7153 1.99297L16.2508 -1.54257L15.7108 -2.08265L12.1752 1.45288ZM13.178 1.53025L16.7136 -2.00529L16.1735 -2.54537L12.6379 0.99016L9.1024 4.52569L9.64249 5.06578L13.178 1.53025ZM15.9545 5.23216L12.419 8.7677L12.9586 9.30735L16.4942 5.77181L20.0297 2.23628L19.4901 1.69663L15.9545 5.23216ZM16.9569 5.30912L20.4924 1.77358L19.9528 1.23393L16.4172 4.76947L12.8817 8.305L13.4213 8.84465L16.9569 5.30912Z" fill="white" mask="url(#path-1-inside-1_68_162)"/>
<mask id="path-3-inside-2_68_162" fill="white">
<path d="M25.6726 11.761C25.8533 11.761 25.9998 11.6145 25.9998 11.4338C25.9998 11.2531 25.8533 11.1066 25.6726 11.1066V11.761ZM24.9091 11.1066C24.7284 11.1066 24.5819 11.2531 24.5819 11.4338C24.5819 11.6145 24.7284 11.761 24.9091 11.761V11.1066ZM20.3284 11.761C20.5091 11.761 20.6556 11.6145 20.6556 11.4338C20.6556 11.2531 20.5091 11.1066 20.3284 11.1066V11.761ZM19.565 11.1066C19.3843 11.1066 19.2378 11.2531 19.2378 11.4338C19.2378 11.6145 19.3843 11.761 19.565 11.761V11.1066ZM22.946 8.38002C22.946 8.19932 22.7995 8.05283 22.6188 8.05283C22.4381 8.05283 22.2916 8.19932 22.2916 8.38002H22.946ZM22.2916 9.14347C22.2916 9.32417 22.4381 9.47067 22.6188 9.47067C22.7995 9.47067 22.946 9.32417 22.946 9.14347H22.2916ZM22.946 13.7242C22.946 13.5435 22.7995 13.397 22.6188 13.397C22.4381 13.397 22.2916 13.5435 22.2916 13.7242H22.946ZM22.2916 14.4876C22.2916 14.6683 22.4381 14.8148 22.6188 14.8148C22.7995 14.8148 22.946 14.6683 22.946 14.4876H22.2916ZM25.0096 9.50571C25.1374 9.37793 25.1374 9.17076 25.0096 9.04299C24.8818 8.91521 24.6747 8.91521 24.5469 9.04299L25.0096 9.50571ZM24.0068 9.58308C23.879 9.71085 23.879 9.91802 24.0068 10.0458C24.1346 10.1736 24.3417 10.1736 24.4695 10.0458L24.0068 9.58308ZM21.2308 13.2846C21.3585 13.1568 21.3585 12.9496 21.2308 12.8219C21.103 12.6941 20.8958 12.6941 20.768 12.8219L21.2308 13.2846ZM20.228 13.3619C20.1002 13.4897 20.1002 13.6969 20.228 13.8246C20.3557 13.9524 20.5629 13.9524 20.6907 13.8246L20.228 13.3619ZM20.6907 9.04299C20.5629 8.91521 20.3557 8.91521 20.228 9.04299C20.1002 9.17076 20.1002 9.37793 20.228 9.50571L20.6907 9.04299ZM20.768 10.0458C20.8958 10.1736 21.103 10.1736 21.2308 10.0458C21.3585 9.91802 21.3585 9.71085 21.2308 9.58308L20.768 10.0458ZM24.47 12.8223C24.3422 12.6945 24.135 12.6945 24.0073 12.8223C23.8795 12.9501 23.8795 13.1572 24.0073 13.285L24.47 12.8223ZM24.5469 13.8246C24.6747 13.9524 24.8818 13.9524 25.0096 13.8246C25.1374 13.6969 25.1374 13.4897 25.0096 13.3619L24.5469 13.8246ZM25.6726 11.1066H24.9091V11.761H25.6726V11.1066ZM20.3284 11.1066H19.565V11.761H20.3284V11.1066ZM22.2916 8.38002V9.14347H22.946V8.38002H22.2916ZM22.2916 13.7242V14.4876H22.946V13.7242H22.2916ZM24.5469 9.04299L24.0068 9.58308L24.4695 10.0458L25.0096 9.50571L24.5469 9.04299ZM20.768 12.8219L20.228 13.3619L20.6907 13.8246L21.2308 13.2846L20.768 12.8219ZM20.228 9.50571L20.768 10.0458L21.2308 9.58308L20.6907 9.04299L20.228 9.50571ZM24.0073 13.285L24.5469 13.8246L25.0096 13.3619L24.47 12.8223L24.0073 13.285Z"/>
</mask>
<path d="M25.6726 11.761C25.8533 11.761 25.9998 11.6145 25.9998 11.4338C25.9998 11.2531 25.8533 11.1066 25.6726 11.1066V11.761ZM24.9091 11.1066C24.7284 11.1066 24.5819 11.2531 24.5819 11.4338C24.5819 11.6145 24.7284 11.761 24.9091 11.761V11.1066ZM20.3284 11.761C20.5091 11.761 20.6556 11.6145 20.6556 11.4338C20.6556 11.2531 20.5091 11.1066 20.3284 11.1066V11.761ZM19.565 11.1066C19.3843 11.1066 19.2378 11.2531 19.2378 11.4338C19.2378 11.6145 19.3843 11.761 19.565 11.761V11.1066ZM22.946 8.38002C22.946 8.19932 22.7995 8.05283 22.6188 8.05283C22.4381 8.05283 22.2916 8.19932 22.2916 8.38002H22.946ZM22.2916 9.14347C22.2916 9.32417 22.4381 9.47067 22.6188 9.47067C22.7995 9.47067 22.946 9.32417 22.946 9.14347H22.2916ZM22.946 13.7242C22.946 13.5435 22.7995 13.397 22.6188 13.397C22.4381 13.397 22.2916 13.5435 22.2916 13.7242H22.946ZM22.2916 14.4876C22.2916 14.6683 22.4381 14.8148 22.6188 14.8148C22.7995 14.8148 22.946 14.6683 22.946 14.4876H22.2916ZM25.0096 9.50571C25.1374 9.37793 25.1374 9.17076 25.0096 9.04299C24.8818 8.91521 24.6747 8.91521 24.5469 9.04299L25.0096 9.50571ZM24.0068 9.58308C23.879 9.71085 23.879 9.91802 24.0068 10.0458C24.1346 10.1736 24.3417 10.1736 24.4695 10.0458L24.0068 9.58308ZM21.2308 13.2846C21.3585 13.1568 21.3585 12.9496 21.2308 12.8219C21.103 12.6941 20.8958 12.6941 20.768 12.8219L21.2308 13.2846ZM20.228 13.3619C20.1002 13.4897 20.1002 13.6969 20.228 13.8246C20.3557 13.9524 20.5629 13.9524 20.6907 13.8246L20.228 13.3619ZM20.6907 9.04299C20.5629 8.91521 20.3557 8.91521 20.228 9.04299C20.1002 9.17076 20.1002 9.37793 20.228 9.50571L20.6907 9.04299ZM20.768 10.0458C20.8958 10.1736 21.103 10.1736 21.2308 10.0458C21.3585 9.91802 21.3585 9.71085 21.2308 9.58308L20.768 10.0458ZM24.47 12.8223C24.3422 12.6945 24.135 12.6945 24.0073 12.8223C23.8795 12.9501 23.8795 13.1572 24.0073 13.285L24.47 12.8223ZM24.5469 13.8246C24.6747 13.9524 24.8818 13.9524 25.0096 13.8246C25.1374 13.6969 25.1374 13.4897 25.0096 13.3619L24.5469 13.8246ZM25.6726 11.1066H24.9091V11.761H25.6726V11.1066ZM20.3284 11.1066H19.565V11.761H20.3284V11.1066ZM22.2916 8.38002V9.14347H22.946V8.38002H22.2916ZM22.2916 13.7242V14.4876H22.946V13.7242H22.2916ZM24.5469 9.04299L24.0068 9.58308L24.4695 10.0458L25.0096 9.50571L24.5469 9.04299ZM20.768 12.8219L20.228 13.3619L20.6907 13.8246L21.2308 13.2846L20.768 12.8219ZM20.228 9.50571L20.768 10.0458L21.2308 9.58308L20.6907 9.04299L20.228 9.50571ZM24.0073 13.285L24.5469 13.8246L25.0096 13.3619L24.47 12.8223L24.0073 13.285Z" fill="white"/>
<path d="M25.6726 11.1066H23.1726V11.761H25.6726H28.1726V11.1066H25.6726ZM24.9091 11.761H27.4091V11.1066H24.9091H22.4091V11.761H24.9091ZM20.3284 11.1066H17.8284V11.761H20.3284H22.8284V11.1066H20.3284ZM19.565 11.761H22.065V11.1066H19.565H17.065V11.761H19.565ZM22.2916 8.38002V10.88H22.946V8.38002V5.88002H22.2916V8.38002ZM22.946 9.14347V6.64347H22.2916V9.14347V11.6435H22.946V9.14347ZM22.2916 13.7242V16.2242H22.946V13.7242V11.2242H22.2916V13.7242ZM22.946 14.4876V11.9876H22.2916V14.4876V16.9876H22.946V14.4876ZM24.5469 9.04299L22.7791 10.8107L23.2418 11.2734L25.0096 9.50571L26.7774 7.73799L26.3147 7.27527L24.5469 9.04299ZM24.4695 10.0458L26.2373 8.27808L25.7746 7.81536L24.0068 9.58308L22.239 11.3508L22.7017 11.8135L24.4695 10.0458ZM20.768 12.8219L19.0003 14.5897L19.463 15.0524L21.2308 13.2846L22.9985 11.5167L22.5358 11.054L20.768 12.8219ZM20.6907 13.8246L22.4584 12.0568L21.9957 11.5941L20.228 13.3619L18.4602 15.1298L18.923 15.5925L20.6907 13.8246ZM20.228 9.50571L21.9957 11.2735L22.4584 10.8108L20.6907 9.04299L18.9229 7.27522L18.4602 7.73794L20.228 9.50571ZM21.2308 9.58308L19.463 7.81531L19.0003 8.27803L20.768 10.0458L22.5358 11.8136L22.9985 11.3508L21.2308 9.58308ZM24.0073 13.285L25.775 15.0528L26.2377 14.5901L24.47 12.8223L22.7022 11.0545L22.2395 11.5172L24.0073 13.285ZM25.0096 13.3619L23.2418 11.5942L22.7791 12.0569L24.5469 13.8246L26.3147 15.5924L26.7774 15.1297L25.0096 13.3619ZM25.0096 9.50571L21.4741 5.97012L21.4741 5.97017L25.0096 9.50571ZM24.5469 9.04299L21.0114 5.5074L21.0114 5.50745L24.5469 9.04299ZM24.0068 9.58308L27.5423 13.1187L27.5424 13.1186L24.0068 9.58308ZM24.4695 10.0458L28.005 13.5814L28.0051 13.5813L24.4695 10.0458ZM21.2308 13.2846L24.7663 16.8201L24.7664 16.82L21.2308 13.2846ZM20.768 12.8219L24.3036 16.3574L24.3036 16.3573L20.768 12.8219ZM20.228 13.3619L16.6924 9.82642L16.6924 9.82648L20.228 13.3619ZM20.6907 13.8246L17.1551 10.2891L17.1551 10.2892L20.6907 13.8246ZM20.228 9.50571L16.6924 13.0412L16.6924 13.0412L20.228 9.50571ZM20.768 10.0458L24.3036 6.51026L24.3036 6.51026L20.768 10.0458ZM24.47 12.8223L20.9344 16.3578L20.9344 16.3578L24.47 12.8223ZM24.0073 13.285L27.5428 9.74946L27.5428 9.74946L24.0073 13.285ZM24.5469 13.8246L21.0114 17.3602L21.0114 17.3602L24.5469 13.8246ZM25.0096 13.3619L28.5451 9.82641L28.5451 9.82641L25.0096 13.3619ZM25.6726 11.761V16.761C28.6147 16.761 30.9998 14.3759 30.9998 11.4338H25.9998H20.9998C20.9998 8.8531 23.0919 6.76102 25.6726 6.76102V11.761ZM25.9998 11.4338H30.9998C30.9998 8.4917 28.6147 6.10663 25.6726 6.10663V11.1066V16.1066C23.0919 16.1066 20.9998 14.0145 20.9998 11.4338H25.9998ZM24.9091 11.1066V6.10663C21.967 6.10663 19.5819 8.4917 19.5819 11.4338H24.5819H29.5819C29.5819 14.0145 27.4899 16.1066 24.9091 16.1066V11.1066ZM24.5819 11.4338H19.5819C19.5819 14.3759 21.967 16.761 24.9091 16.761V11.761V6.76102C27.4899 6.76102 29.5819 8.8531 29.5819 11.4338H24.5819ZM20.3284 11.761V16.761C23.2706 16.761 25.6556 14.3759 25.6556 11.4338H20.6556H15.6556C15.6556 8.85314 17.7477 6.76102 20.3284 6.76102V11.761ZM20.6556 11.4338H25.6556C25.6556 8.49174 23.2706 6.10663 20.3284 6.10663V11.1066V16.1066C17.7477 16.1066 15.6556 14.0145 15.6556 11.4338H20.6556ZM19.565 11.1066V6.10663C16.6228 6.10663 14.2378 8.49174 14.2378 11.4338H19.2378H24.2378C24.2378 14.0145 22.1458 16.1066 19.565 16.1066V11.1066ZM19.2378 11.4338H14.2378C14.2378 14.3759 16.6228 16.761 19.565 16.761V11.761V6.76102C22.1458 6.76102 24.2378 8.85314 24.2378 11.4338H19.2378ZM22.946 8.38002H27.946C27.946 5.43785 25.5609 3.05283 22.6188 3.05283V8.05283V13.0528C20.0381 13.0528 17.946 10.9608 17.946 8.38002H22.946ZM22.6188 8.05283V3.05283C19.6767 3.05283 17.2916 5.43785 17.2916 8.38002H22.2916H27.2916C27.2916 10.9608 25.1995 13.0528 22.6188 13.0528V8.05283ZM22.2916 9.14347H17.2916C17.2916 12.0856 19.6767 14.4707 22.6188 14.4707V9.47067V4.47067C25.1995 4.47067 27.2916 6.56271 27.2916 9.14347H22.2916ZM22.6188 9.47067V14.4707C25.5609 14.4707 27.946 12.0856 27.946 9.14347H22.946H17.946C17.946 6.56271 20.0381 4.47067 22.6188 4.47067V9.47067ZM22.946 13.7242H27.946C27.946 10.7821 25.5609 8.39698 22.6188 8.39698V13.397V18.397C20.0381 18.397 17.946 16.3049 17.946 13.7242H22.946ZM22.6188 13.397V8.39698C19.6767 8.39698 17.2916 10.7821 17.2916 13.7242H22.2916H27.2916C27.2916 16.3049 25.1995 18.397 22.6188 18.397V13.397ZM22.2916 14.4876H17.2916C17.2916 17.4297 19.6767 19.8148 22.6188 19.8148V14.8148V9.81482C25.1995 9.81482 27.2916 11.9069 27.2916 14.4876H22.2916ZM22.6188 14.8148V19.8148C25.5609 19.8148 27.946 17.4297 27.946 14.4876H22.946H17.946C17.946 11.9069 20.0381 9.81482 22.6188 9.81482V14.8148ZM25.0096 9.50571L28.5451 13.0413C30.6256 10.9609 30.6256 7.58781 28.5451 5.5074L25.0096 9.04299L21.4741 12.5786C19.6492 10.7537 19.6492 7.79498 21.4741 5.97012L25.0096 9.50571ZM25.0096 9.04299L28.5451 5.5074C26.4647 3.42708 23.0918 3.42708 21.0114 5.5074L24.5469 9.04299L28.0824 12.5786C26.2576 14.4033 23.299 14.4033 21.4741 12.5786L25.0096 9.04299ZM24.0068 9.58308L20.4714 6.04748C18.3909 8.12789 18.3909 11.501 20.4714 13.5814L24.0068 10.0458L27.5423 6.5102C29.3672 8.33506 29.3672 11.2938 27.5423 13.1187L24.0068 9.58308ZM24.0068 10.0458L20.4714 13.5814C22.5517 15.6617 25.9246 15.6617 28.005 13.5814L24.4695 10.0458L20.934 6.5102C22.7589 4.68544 25.7175 4.68544 27.5423 6.5102L24.0068 10.0458ZM21.2308 13.2846L24.7664 16.82C26.8467 14.7396 26.8467 11.3668 24.7664 9.28639L21.2308 12.8219L17.6952 16.3573C15.8704 14.5325 15.8704 11.5739 17.6952 9.74908L21.2308 13.2846ZM21.2308 12.8219L24.7664 9.28639C22.6859 7.20591 19.3129 7.20591 17.2324 9.28639L20.768 12.8219L24.3036 16.3573C22.4788 18.1823 19.52 18.1823 17.6952 16.3573L21.2308 12.8219ZM20.228 13.3619L16.6924 9.82648C14.612 11.9069 14.612 15.2797 16.6924 17.3601L20.228 13.8246L23.7635 10.2892C25.5883 12.114 25.5883 15.0726 23.7635 16.8974L20.228 13.3619ZM20.228 13.8246L16.6924 17.3601C18.7728 19.4406 22.1459 19.4406 24.2263 17.3601L20.6907 13.8246L17.1551 10.2892C18.9799 8.46425 21.9387 8.46425 23.7635 10.2892L20.228 13.8246ZM20.6907 9.04299L24.2262 5.50746C22.1458 3.42706 18.7728 3.42706 16.6924 5.50746L20.228 9.04299L23.7635 12.5785C21.9386 14.4034 18.98 14.4034 17.1551 12.5785L20.6907 9.04299ZM20.228 9.04299L16.6924 5.50746C14.612 7.58785 14.612 10.9608 16.6924 13.0412L20.228 9.50571L23.7635 5.97018C25.5883 7.79502 25.5883 10.7537 23.7635 12.5785L20.228 9.04299ZM20.768 10.0458L17.2325 13.5813C19.3129 15.6617 22.6859 15.6617 24.7663 13.5813L21.2308 10.0458L17.6952 6.51026C19.5201 4.68542 22.4787 4.68542 24.3036 6.51026L20.768 10.0458ZM21.2308 10.0458L24.7663 13.5813C26.8467 11.5009 26.8467 8.12794 24.7663 6.04754L21.2308 9.58308L17.6952 13.1186C15.8704 11.2938 15.8704 8.33511 17.6952 6.51026L21.2308 10.0458ZM24.47 12.8223L28.0055 9.28676C25.9251 7.20636 22.5521 7.20636 20.4717 9.28676L24.0073 12.8223L27.5428 16.3578C25.718 18.1827 22.7593 18.1827 20.9344 16.3578L24.47 12.8223ZM24.0073 12.8223L20.4717 9.28676C18.3913 11.3672 18.3913 14.7401 20.4717 16.8205L24.0073 13.285L27.5428 9.74946C29.3676 11.5743 29.3676 14.533 27.5428 16.3578L24.0073 12.8223ZM24.5469 13.8246L21.0114 17.3602C23.0918 19.4406 26.4647 19.4406 28.5451 17.3602L25.0096 13.8246L21.4741 10.2891C23.2989 8.46427 26.2576 8.46427 28.0824 10.2891L24.5469 13.8246ZM25.0096 13.8246L28.5451 17.3602C30.6255 15.2798 30.6255 11.9068 28.5451 9.82641L25.0096 13.3619L21.4741 16.8975C19.6492 15.0726 19.6492 12.114 21.4741 10.2891L25.0096 13.8246ZM25.6726 11.1066V6.10663H24.9091V11.1066V16.1066H25.6726V11.1066ZM24.9091 11.761V16.761H25.6726V11.761V6.76102H24.9091V11.761ZM20.3284 11.1066V6.10663H19.565V11.1066V16.1066H20.3284V11.1066ZM19.565 11.761V16.761H20.3284V11.761V6.76102H19.565V11.761ZM22.2916 8.38002H17.2916V9.14347H22.2916H27.2916V8.38002H22.2916ZM22.946 9.14347H27.946V8.38002H22.946H17.946V9.14347H22.946ZM22.2916 13.7242H17.2916V14.4876H22.2916H27.2916V13.7242H22.2916ZM22.946 14.4876H27.946V13.7242H22.946H17.946V14.4876H22.946ZM24.5469 9.04299L21.0114 5.50745L20.4713 6.04754L24.0068 9.58308L27.5424 13.1186L28.0824 12.5785L24.5469 9.04299ZM24.4695 10.0458L28.0051 13.5813L28.5451 13.0412L25.0096 9.50571L21.4741 5.97017L20.934 6.51026L24.4695 10.0458ZM20.768 12.8219L17.2325 9.28633L16.6924 9.82642L20.228 13.3619L23.7635 16.8975L24.3036 16.3574L20.768 12.8219ZM20.6907 13.8246L24.2262 17.3602L24.7663 16.8201L21.2308 13.2846L17.6952 9.74902L17.1551 10.2891L20.6907 13.8246ZM20.228 9.50571L16.6924 13.0412L17.2325 13.5813L20.768 10.0458L24.3036 6.51026L23.7635 5.97018L20.228 9.50571ZM21.2308 9.58308L24.7663 6.04754L24.2262 5.50746L20.6907 9.04299L17.1551 12.5785L17.6952 13.1186L21.2308 9.58308ZM24.0073 13.285L20.4717 16.8205L21.0114 17.3602L24.5469 13.8246L28.0824 10.2891L27.5428 9.74946L24.0073 13.285ZM25.0096 13.3619L28.5451 9.82641L28.0055 9.28676L24.47 12.8223L20.9344 16.3578L21.4741 16.8975L25.0096 13.3619Z" fill="white" mask="url(#path-3-inside-2_68_162)"/>
<path d="M1 14.1575C1 20.1457 5.85436 25 11.8425 25C16.405 25 20.3093 22.1819 21.9098 18.1915C20.661 18.6934 19.2944 18.9763 17.8661 18.9763C11.8779 18.9763 7.02362 14.1219 7.02362 8.13376C7.02362 6.71214 7.30232 5.3378 7.79973 4.09377C3.81392 5.69644 1 9.59835 1 14.1575Z" stroke="white" stroke-width="2" stroke-linecap="round" stroke-linejoin="round"/>
</svg>
