<svg role="img" viewBox="0 0 200 200" xmlns="http://www.w3.org/2000/svg" id="N8n--Streamline-Simple-Icons" height="200" width="200">
  <desc>
    N8n Streamline Icon: https://streamlinehq.com
  </desc>
  <title>n8n</title>
  <path d="M178.94750000000002 47.36833333333333c-9.81 0 -18.052500000000002 6.709166666666667 -20.39 15.789166666666668h-24.12916666666667c-10.291666666666668 0 -19.075000000000003 7.441666666666667 -20.76666666666667 17.59166666666667l-0.8650000000000001 5.191666666666667a10.525 10.525 0 0 1 -10.383333333333335 8.795833333333334H94.075c-2.3375000000000004 -9.08 -10.580000000000002 -15.789166666666668 -20.39 -15.789166666666668s-18.052500000000002 6.709166666666667 -20.389166666666668 15.789166666666668H41.44166666666667c-2.3375000000000004 -9.08 -10.580000000000002 -15.789166666666668 -20.39 -15.789166666666668C9.425833333333333 78.9475 0 88.3725 0 100s9.425 21.052500000000002 21.052500000000002 21.052500000000002c9.81 0 18.052500000000002 -6.709166666666667 20.39 -15.789166666666668h11.8525c2.336666666666667 9.08 10.580000000000002 15.789166666666668 20.389166666666668 15.789166666666668 9.81 0 18.052500000000002 -6.709166666666667 20.39 -15.789166666666668h8.34a10.525 10.525 0 0 1 10.3825 8.795833333333334l0.8650000000000001 5.191666666666667c1.6916666666666669 10.15 10.475 17.59166666666667 20.76666666666667 17.59166666666667h3.0766666666666667c2.336666666666667 9.079166666666666 10.580000000000002 15.789166666666668 20.39 15.789166666666668 11.626666666666667 0 21.052500000000002 -9.425 21.052500000000002 -21.052500000000002s-9.425 -21.052500000000002 -21.052500000000002 -21.052500000000002c-9.81 0 -18.053333333333335 6.708333333333334 -20.39 15.789166666666668h-3.0766666666666667a10.525 10.525 0 0 1 -10.383333333333335 -8.795833333333334l-0.8641666666666667 -5.191666666666667A21 21 0 0 0 116.33916666666667 100a21 21 0 0 0 6.841666666666667 -12.328333333333335l0.8650000000000001 -5.191666666666667a10.525 10.525 0 0 1 10.3825 -8.795833333333334h24.12916666666667c2.3375000000000004 9.08 10.580000000000002 15.789166666666668 20.39 15.789166666666668 11.626666666666667 0 21.052500000000002 -9.425 21.052500000000002 -21.052500000000002s-9.425 -21.052500000000002 -21.052500000000002 -21.052500000000002m0 10.526666666666669a10.525 10.525 0 0 1 10.525833333333333 10.525833333333333 10.525 10.525 0 0 1 -10.525833333333333 10.526666666666669 10.525 10.525 0 0 1 -10.526666666666669 -10.526666666666669 10.525 10.525 0 0 1 10.526666666666669 -10.525833333333333M21.052500000000002 89.47333333333334A10.525 10.525 0 0 1 31.57916666666667 100a10.525 10.525 0 0 1 -10.526666666666669 10.526666666666669A10.525 10.525 0 0 1 10.526666666666669 100a10.525 10.525 0 0 1 10.525833333333333 -10.526666666666669m52.631666666666675 0A10.525 10.525 0 0 1 84.21083333333334 100a10.525 10.525 0 0 1 -10.526666666666669 10.526666666666669A10.525 10.525 0 0 1 63.15833333333334 100a10.525 10.525 0 0 1 10.526666666666669 -10.526666666666669m84.21083333333334 31.57916666666667a10.525 10.525 0 0 1 10.525833333333333 10.526666666666669 10.525 10.525 0 0 1 -10.525833333333333 10.525833333333333 10.525 10.525 0 0 1 -10.526666666666669 -10.525833333333333 10.525 10.525 0 0 1 10.526666666666669 -10.526666666666669" fill="#ffffff" stroke-width="8.3333"></path>
</svg>