<svg width="20" height="20" viewBox="0 0 20 20" fill="none" xmlns="http://www.w3.org/2000/svg">
<path fill-rule="evenodd" clip-rule="evenodd" d="M13.3871 10C13.3871 11.8706 11.8706 13.3871 10 13.3871C8.12943 13.3871 6.61292 11.8706 6.61292 10C6.61292 8.12943 8.12943 6.61292 10 6.61292C11.8706 6.61292 13.3871 8.12943 13.3871 10Z" fill="white" stroke="white" stroke-width="0.25" stroke-linecap="round" stroke-linejoin="round"/>
<path d="M19.0323 10.9677C19.5667 10.9677 20 10.5345 20 10C20 9.46555 19.5667 9.03226 19.0323 9.03226V10.9677ZM16.7742 9.03226C16.2397 9.03226 15.8065 9.46555 15.8065 10C15.8065 10.5345 16.2397 10.9677 16.7742 10.9677V9.03226ZM3.22581 10.9677C3.76027 10.9677 4.19355 10.5345 4.19355 10C4.19355 9.46555 3.76027 9.03226 3.22581 9.03226V10.9677ZM0.967742 9.03226C0.433277 9.03226 0 9.46555 0 10C0 10.5345 0.433277 10.9677 0.967742 10.9677V9.03226ZM10.9677 0.967742C10.9677 0.433277 10.5345 0 10 0C9.46555 0 9.03226 0.433277 9.03226 0.967742H10.9677ZM9.03226 3.22581C9.03226 3.76027 9.46555 4.19355 10 4.19355C10.5345 4.19355 10.9677 3.76027 10.9677 3.22581H9.03226ZM10.9677 16.7742C10.9677 16.2397 10.5345 15.8065 10 15.8065C9.46555 15.8065 9.03226 16.2397 9.03226 16.7742H10.9677ZM9.03226 19.0323C9.03226 19.5667 9.46555 20 10 20C10.5345 20 10.9677 19.5667 10.9677 19.0323H9.03226ZM17.0714 4.2972C17.4493 3.91928 17.4493 3.30653 17.0714 2.92861C16.6934 2.55068 16.0808 2.55068 15.7028 2.92861L17.0714 4.2972ZM14.1054 4.52603C13.7275 4.90395 13.7275 5.5167 14.1054 5.89462C14.4834 6.27254 15.096 6.27254 15.4739 5.89462L14.1054 4.52603ZM5.89462 15.4739C6.27254 15.096 6.27254 14.4834 5.89462 14.1054C5.5167 13.7275 4.90395 13.7275 4.52603 14.1054L5.89462 15.4739ZM2.92861 15.7028C2.55068 16.0808 2.55068 16.6934 2.92861 17.0714C3.30653 17.4493 3.91928 17.4493 4.2972 17.0714L2.92861 15.7028ZM4.2972 2.92861C3.91928 2.55068 3.30653 2.55068 2.92861 2.92861C2.55068 3.30653 2.55068 3.91928 2.92861 4.2972L4.2972 2.92861ZM4.52603 5.89462C4.90395 6.27254 5.5167 6.27254 5.89462 5.89462C6.27254 5.5167 6.27254 4.90395 5.89462 4.52603L4.52603 5.89462ZM15.4752 14.1067C15.0973 13.7288 14.4846 13.7288 14.1067 14.1067C13.7288 14.4846 13.7288 15.0973 14.1067 15.4752L15.4752 14.1067ZM15.7028 17.0714C16.0808 17.4493 16.6934 17.4493 17.0714 17.0714C17.4493 16.6934 17.4493 16.0808 17.0714 15.7028L15.7028 17.0714ZM19.0323 9.03226H16.7742V10.9677H19.0323V9.03226ZM3.22581 9.03226H0.967742V10.9677H3.22581V9.03226ZM9.03226 0.967742V3.22581H10.9677V0.967742H9.03226ZM9.03226 16.7742V19.0323H10.9677V16.7742H9.03226ZM15.7028 2.92861L14.1054 4.52603L15.4739 5.89462L17.0714 4.2972L15.7028 2.92861ZM4.52603 14.1054L2.92861 15.7028L4.2972 17.0714L5.89462 15.4739L4.52603 14.1054ZM2.92861 4.2972L4.52603 5.89462L5.89462 4.52603L4.2972 2.92861L2.92861 4.2972ZM14.1067 15.4752L15.7028 17.0714L17.0714 15.7028L15.4752 14.1067L14.1067 15.4752Z" fill="white"/>
</svg>
