<svg width="25" height="25" viewBox="0 0 25 25" fill="none" xmlns="http://www.w3.org/2000/svg">
<path fill-rule="evenodd" clip-rule="evenodd" d="M17.5 12.5C17.5 15.2613 15.2613 17.5 12.5 17.5C9.73867 17.5 7.5 15.2613 7.5 12.5C7.5 9.73867 9.73867 7.5 12.5 7.5C15.2613 7.5 17.5 9.73867 17.5 12.5Z" stroke="black" stroke-width="2" stroke-linecap="round" stroke-linejoin="round"/>
<mask id="path-2-inside-1_68_158" fill="white">
<path d="M23.7903 13.7097C24.4584 13.7097 25 13.1681 25 12.5C25 11.8319 24.4584 11.2903 23.7903 11.2903V13.7097ZM20.9677 11.2903C20.2997 11.2903 19.7581 11.8319 19.7581 12.5C19.7581 13.1681 20.2997 13.7097 20.9677 13.7097V11.2903ZM4.03226 13.7097C4.70034 13.7097 5.24194 13.1681 5.24194 12.5C5.24194 11.8319 4.70034 11.2903 4.03226 11.2903V13.7097ZM1.20968 11.2903C0.541597 11.2903 0 11.8319 0 12.5C0 13.1681 0.541597 13.7097 1.20968 13.7097V11.2903ZM13.7097 1.20968C13.7097 0.541597 13.1681 0 12.5 0C11.8319 0 11.2903 0.541597 11.2903 1.20968H13.7097ZM11.2903 4.03226C11.2903 4.70034 11.8319 5.24194 12.5 5.24194C13.1681 5.24194 13.7097 4.70034 13.7097 4.03226H11.2903ZM13.7097 20.9677C13.7097 20.2997 13.1681 19.7581 12.5 19.7581C11.8319 19.7581 11.2903 20.2997 11.2903 20.9677H13.7097ZM11.2903 23.7903C11.2903 24.4584 11.8319 25 12.5 25C13.1681 25 13.7097 24.4584 13.7097 23.7903H11.2903ZM21.3392 5.3715C21.8116 4.8991 21.8116 4.13316 21.3392 3.66076C20.8668 3.18835 20.101 3.18835 19.6285 3.66076L21.3392 5.3715ZM17.6318 5.65753C17.1594 6.12994 17.1594 6.89587 17.6318 7.36827C18.1042 7.84068 18.87 7.84068 19.3424 7.36827L17.6318 5.65753ZM7.36827 19.3424C7.84068 18.87 7.84068 18.1042 7.36827 17.6318C6.89587 17.1594 6.12994 17.1594 5.65753 17.6318L7.36827 19.3424ZM3.66076 19.6285C3.18835 20.101 3.18835 20.8668 3.66076 21.3392C4.13316 21.8116 4.8991 21.8116 5.3715 21.3392L3.66076 19.6285ZM5.3715 3.66076C4.8991 3.18835 4.13316 3.18835 3.66076 3.66076C3.18835 4.13316 3.18835 4.8991 3.66076 5.3715L5.3715 3.66076ZM5.65753 7.36827C6.12994 7.84068 6.89587 7.84068 7.36827 7.36827C7.84068 6.89587 7.84068 6.12994 7.36827 5.65753L5.65753 7.36827ZM19.344 17.6334C18.8716 17.161 18.1058 17.161 17.6334 17.6334C17.161 18.1058 17.161 18.8716 17.6334 19.344L19.344 17.6334ZM19.6285 21.3392C20.101 21.8116 20.8668 21.8116 21.3392 21.3392C21.8116 20.8668 21.8116 20.101 21.3392 19.6285L19.6285 21.3392ZM23.7903 11.2903H20.9677V13.7097H23.7903V11.2903ZM4.03226 11.2903H1.20968V13.7097H4.03226V11.2903ZM11.2903 1.20968V4.03226H13.7097V1.20968H11.2903ZM11.2903 20.9677V23.7903H13.7097V20.9677H11.2903ZM19.6285 3.66076L17.6318 5.65753L19.3424 7.36827L21.3392 5.3715L19.6285 3.66076ZM5.65753 17.6318L3.66076 19.6285L5.3715 21.3392L7.36827 19.3424L5.65753 17.6318ZM3.66076 5.3715L5.65753 7.36827L7.36827 5.65753L5.3715 3.66076L3.66076 5.3715ZM17.6334 19.344L19.6285 21.3392L21.3392 19.6285L19.344 17.6334L17.6334 19.344Z"/>
</mask>
<path d="M23.7903 13.7097C24.4584 13.7097 25 13.1681 25 12.5C25 11.8319 24.4584 11.2903 23.7903 11.2903V13.7097ZM20.9677 11.2903C20.2997 11.2903 19.7581 11.8319 19.7581 12.5C19.7581 13.1681 20.2997 13.7097 20.9677 13.7097V11.2903ZM4.03226 13.7097C4.70034 13.7097 5.24194 13.1681 5.24194 12.5C5.24194 11.8319 4.70034 11.2903 4.03226 11.2903V13.7097ZM1.20968 11.2903C0.541597 11.2903 0 11.8319 0 12.5C0 13.1681 0.541597 13.7097 1.20968 13.7097V11.2903ZM13.7097 1.20968C13.7097 0.541597 13.1681 0 12.5 0C11.8319 0 11.2903 0.541597 11.2903 1.20968H13.7097ZM11.2903 4.03226C11.2903 4.70034 11.8319 5.24194 12.5 5.24194C13.1681 5.24194 13.7097 4.70034 13.7097 4.03226H11.2903ZM13.7097 20.9677C13.7097 20.2997 13.1681 19.7581 12.5 19.7581C11.8319 19.7581 11.2903 20.2997 11.2903 20.9677H13.7097ZM11.2903 23.7903C11.2903 24.4584 11.8319 25 12.5 25C13.1681 25 13.7097 24.4584 13.7097 23.7903H11.2903ZM21.3392 5.3715C21.8116 4.8991 21.8116 4.13316 21.3392 3.66076C20.8668 3.18835 20.101 3.18835 19.6285 3.66076L21.3392 5.3715ZM17.6318 5.65753C17.1594 6.12994 17.1594 6.89587 17.6318 7.36827C18.1042 7.84068 18.87 7.84068 19.3424 7.36827L17.6318 5.65753ZM7.36827 19.3424C7.84068 18.87 7.84068 18.1042 7.36827 17.6318C6.89587 17.1594 6.12994 17.1594 5.65753 17.6318L7.36827 19.3424ZM3.66076 19.6285C3.18835 20.101 3.18835 20.8668 3.66076 21.3392C4.13316 21.8116 4.8991 21.8116 5.3715 21.3392L3.66076 19.6285ZM5.3715 3.66076C4.8991 3.18835 4.13316 3.18835 3.66076 3.66076C3.18835 4.13316 3.18835 4.8991 3.66076 5.3715L5.3715 3.66076ZM5.65753 7.36827C6.12994 7.84068 6.89587 7.84068 7.36827 7.36827C7.84068 6.89587 7.84068 6.12994 7.36827 5.65753L5.65753 7.36827ZM19.344 17.6334C18.8716 17.161 18.1058 17.161 17.6334 17.6334C17.161 18.1058 17.161 18.8716 17.6334 19.344L19.344 17.6334ZM19.6285 21.3392C20.101 21.8116 20.8668 21.8116 21.3392 21.3392C21.8116 20.8668 21.8116 20.101 21.3392 19.6285L19.6285 21.3392ZM23.7903 11.2903H20.9677V13.7097H23.7903V11.2903ZM4.03226 11.2903H1.20968V13.7097H4.03226V11.2903ZM11.2903 1.20968V4.03226H13.7097V1.20968H11.2903ZM11.2903 20.9677V23.7903H13.7097V20.9677H11.2903ZM19.6285 3.66076L17.6318 5.65753L19.3424 7.36827L21.3392 5.3715L19.6285 3.66076ZM5.65753 17.6318L3.66076 19.6285L5.3715 21.3392L7.36827 19.3424L5.65753 17.6318ZM3.66076 5.3715L5.65753 7.36827L7.36827 5.65753L5.3715 3.66076L3.66076 5.3715ZM17.6334 19.344L19.6285 21.3392L21.3392 19.6285L19.344 17.6334L17.6334 19.344Z" fill="black"/>
<path d="M21.2903 11.2903V13.7097H26.2903V11.2903H21.2903ZM23.4677 13.7097V11.2903H18.4677V13.7097H23.4677ZM1.53226 11.2903V13.7097H6.53226V11.2903H1.53226ZM3.70968 13.7097V11.2903H-1.29032V13.7097H3.70968ZM11.2903 3.70968H13.7097V-1.29032H11.2903V3.70968ZM13.7097 1.53226H11.2903V6.53226H13.7097V1.53226ZM11.2903 23.4677H13.7097V18.4677H11.2903V23.4677ZM13.7097 21.2903H11.2903V26.2903H13.7097V21.2903ZM17.8607 5.42848L19.5714 7.13922L23.107 3.60378L21.3964 1.89304L17.8607 5.42848ZM21.1102 5.60056L19.3996 3.88981L15.864 7.42525L17.5746 9.13599L21.1102 5.60056ZM3.88982 19.3996L5.60056 21.1102L9.13599 17.5746L7.42525 15.864L3.88982 19.3996ZM7.13922 19.5714L5.42848 17.8607L1.89304 21.3964L3.60378 23.107L7.13922 19.5714ZM5.42852 7.13927L7.13927 5.42852L3.60373 1.89299L1.89299 3.60373L5.42852 7.13927ZM5.60051 3.88977L3.88977 5.60051L7.4253 9.13604L9.13604 7.4253L5.60051 3.88977ZM19.4012 21.1118L21.1118 19.4012L17.5763 15.8656L15.8656 17.5763L19.4012 21.1118ZM19.5714 17.8608L17.8608 19.5714L21.3963 23.107L23.107 21.3963L19.5714 17.8608ZM21.3392 5.3715L17.8037 1.83591L17.8037 1.83596L21.3392 5.3715ZM19.6285 3.66076L16.0931 0.125164L16.093 0.125223L19.6285 3.66076ZM17.6318 5.65753L21.1672 9.19313L21.1673 9.19307L17.6318 5.65753ZM19.3424 7.36827L22.8779 10.9039L22.878 10.9038L19.3424 7.36827ZM7.36827 19.3424L10.9038 22.878L10.9039 22.8779L7.36827 19.3424ZM5.65753 17.6318L9.19307 21.1673L9.19313 21.1672L5.65753 17.6318ZM3.66076 19.6285L0.125224 16.093L0.125164 16.0931L3.66076 19.6285ZM5.3715 21.3392L1.83596 17.8037L1.83591 17.8037L5.3715 21.3392ZM3.66076 5.3715L0.125224 8.90703L0.125225 8.90703L3.66076 5.3715ZM5.65753 7.36827L9.19307 3.83274V3.83274L5.65753 7.36827ZM19.344 17.6334L15.8085 21.1689L15.8085 21.1689L19.344 17.6334ZM17.6334 19.344L21.1689 15.8085L21.1689 15.8085L17.6334 19.344ZM19.6285 21.3392L16.093 24.8747L16.093 24.8747L19.6285 21.3392ZM21.3392 19.6285L24.8747 16.093L24.8747 16.093L21.3392 19.6285ZM23.7903 18.7097C27.2198 18.7097 30 15.9295 30 12.5H20C20 10.4066 21.697 8.70968 23.7903 8.70968V18.7097ZM30 12.5C30 9.07051 27.2198 6.29032 23.7903 6.29032V16.2903C21.697 16.2903 20 14.5934 20 12.5H30ZM20.9677 6.29032C17.5383 6.29032 14.7581 9.07051 14.7581 12.5H24.7581C24.7581 14.5934 23.0611 16.2903 20.9677 16.2903V6.29032ZM14.7581 12.5C14.7581 15.9295 17.5383 18.7097 20.9677 18.7097V8.70968C23.0611 8.70968 24.7581 10.4066 24.7581 12.5H14.7581ZM4.03226 18.7097C7.46181 18.7097 10.2419 15.9294 10.2419 12.5H0.241936C0.241936 10.4067 1.93887 8.70968 4.03226 8.70968V18.7097ZM10.2419 12.5C10.2419 9.07055 7.46181 6.29032 4.03226 6.29032V16.2903C1.93887 16.2903 0.241936 14.5933 0.241936 12.5H10.2419ZM1.20968 6.29032C-2.21987 6.29032 -5 9.07055 -5 12.5H5C5 14.5933 3.30306 16.2903 1.20968 16.2903V6.29032ZM-5 12.5C-5 15.9294 -2.21987 18.7097 1.20968 18.7097V8.70968C3.30306 8.70968 5 10.4067 5 12.5H-5ZM18.7097 1.20968C18.7097 -2.21987 15.9294 -5 12.5 -5V5C10.4067 5 8.70968 3.30306 8.70968 1.20968H18.7097ZM12.5 -5C9.07055 -5 6.29032 -2.21987 6.29032 1.20968H16.2903C16.2903 3.30306 14.5933 5 12.5 5V-5ZM6.29032 4.03226C6.29032 7.46181 9.07055 10.2419 12.5 10.2419V0.241936C14.5933 0.241936 16.2903 1.93887 16.2903 4.03226H6.29032ZM12.5 10.2419C15.9294 10.2419 18.7097 7.46181 18.7097 4.03226H8.70968C8.70968 1.93887 10.4067 0.241936 12.5 0.241936V10.2419ZM18.7097 20.9677C18.7097 17.5383 15.9295 14.7581 12.5 14.7581V24.7581C10.4066 24.7581 8.70968 23.0611 8.70968 20.9677H18.7097ZM12.5 14.7581C9.07051 14.7581 6.29032 17.5383 6.29032 20.9677H16.2903C16.2903 23.0611 14.5934 24.7581 12.5 24.7581V14.7581ZM6.29032 23.7903C6.29032 27.2198 9.07051 30 12.5 30V20C14.5934 20 16.2903 21.697 16.2903 23.7903H6.29032ZM12.5 30C15.9295 30 18.7097 27.2198 18.7097 23.7903H8.70968C8.70968 21.697 10.4066 20 12.5 20V30ZM24.8747 8.90709C27.2998 6.48206 27.2998 2.5502 24.8747 0.125164L17.8037 7.19635C16.3234 5.71612 16.3234 3.31614 17.8037 1.83591L24.8747 8.90709ZM24.8747 0.125164C22.4496 -2.29978 18.5181 -2.29978 16.0931 0.125164L23.164 7.19635C21.6838 8.67649 19.2839 8.67649 17.8037 7.19635L24.8747 0.125164ZM14.0963 2.12194C11.6712 4.54698 11.6712 8.47883 14.0963 10.9039L21.1672 3.83268C22.6475 5.31291 22.6475 7.71289 21.1672 9.19313L14.0963 2.12194ZM14.0963 10.9039C16.5213 13.3288 20.4529 13.3288 22.8779 10.9039L15.8069 3.83268C17.2871 2.35254 19.6871 2.35254 21.1672 3.83268L14.0963 10.9039ZM10.9039 22.8779C13.3288 20.4529 13.3288 16.5213 10.9039 14.0963L3.83268 21.1672C2.35254 19.6871 2.35254 17.2871 3.83268 15.8069L10.9039 22.8779ZM10.9039 14.0963C8.47883 11.6712 4.54698 11.6712 2.12194 14.0963L9.19313 21.1672C7.71289 22.6475 5.31291 22.6475 3.83268 21.1672L10.9039 14.0963ZM0.125164 16.0931C-2.29978 18.5181 -2.29978 22.4496 0.125164 24.8747L7.19635 17.8037C8.67649 19.2839 8.67649 21.6838 7.19635 23.164L0.125164 16.0931ZM0.125164 24.8747C2.5502 27.2998 6.48206 27.2998 8.90709 24.8747L1.83591 17.8037C3.31614 16.3234 5.71612 16.3234 7.19635 17.8037L0.125164 24.8747ZM8.90703 0.125224C6.48201 -2.2998 2.55025 -2.2998 0.125224 0.125224L7.19629 7.19629C5.71607 8.67651 3.31618 8.67651 1.83597 7.19629L8.90703 0.125224ZM0.125224 0.125224C-2.2998 2.55025 -2.2998 6.48201 0.125224 8.90703L7.19629 1.83597C8.67651 3.31618 8.67651 5.71607 7.19629 7.19629L0.125224 0.125224ZM2.122 10.9038C4.54702 13.3288 8.47878 13.3288 10.9038 10.9038L3.83274 3.83274C5.31296 2.35252 7.71285 2.35252 9.19307 3.83274L2.122 10.9038ZM10.9038 10.9038C13.3288 8.47878 13.3288 4.54702 10.9038 2.122L3.83274 9.19307C2.35252 7.71285 2.35252 5.31296 3.83274 3.83274L10.9038 10.9038ZM22.8796 14.0979C20.4545 11.6728 16.5229 11.6728 14.0979 14.0979L21.1689 21.1689C19.6887 22.6491 17.2887 22.6491 15.8085 21.1689L22.8796 14.0979ZM14.0979 14.0979C11.6728 16.5229 11.6728 20.4545 14.0979 22.8796L21.1689 15.8085C22.6491 17.2887 22.6491 19.6887 21.1689 21.1689L14.0979 14.0979ZM16.093 24.8747C18.5181 27.2998 22.4497 27.2998 24.8747 24.8747L17.8037 17.8037C19.2839 16.3235 21.6839 16.3235 23.1641 17.8037L16.093 24.8747ZM24.8747 24.8747C27.2998 22.4497 27.2998 18.5181 24.8747 16.093L17.8037 23.1641C16.3235 21.6839 16.3235 19.2839 17.8037 17.8037L24.8747 24.8747ZM23.7903 6.29032H20.9677V16.2903H23.7903V6.29032ZM20.9677 18.7097H23.7903V8.70968H20.9677V18.7097ZM4.03226 6.29032H1.20968V16.2903H4.03226V6.29032ZM1.20968 18.7097H4.03226V8.70968H1.20968V18.7097ZM6.29032 1.20968V4.03226H16.2903V1.20968H6.29032ZM18.7097 4.03226V1.20968H8.70968V4.03226H18.7097ZM6.29032 20.9677V23.7903H16.2903V20.9677H6.29032ZM18.7097 23.7903V20.9677H8.70968V23.7903H18.7097ZM16.093 0.125223L14.0962 2.122L21.1673 9.19307L23.1641 7.19629L16.093 0.125223ZM22.878 10.9038L24.8747 8.90703L17.8037 1.83596L15.8069 3.83274L22.878 10.9038ZM2.122 14.0962L0.125224 16.093L7.19629 23.1641L9.19307 21.1673L2.122 14.0962ZM8.90703 24.8747L10.9038 22.878L3.83274 15.8069L1.83596 17.8037L8.90703 24.8747ZM0.125225 8.90703L2.122 10.9038L9.19307 3.83274L7.19629 1.83597L0.125225 8.90703ZM10.9038 2.122L8.90703 0.125224L1.83597 7.19629L3.83274 9.19307L10.9038 2.122ZM14.0979 22.8796L16.093 24.8747L23.1641 17.8037L21.1689 15.8085L14.0979 22.8796ZM24.8747 16.093L22.8796 14.0979L15.8085 21.1689L17.8037 23.1641L24.8747 16.093Z" fill="black" mask="url(#path-2-inside-1_68_158)"/>
</svg>
