<svg width="44" height="34" viewBox="0 0 44 34" fill="none" xmlns="http://www.w3.org/2000/svg">
<path d="M36.9887 3.05905C34.2154 1.77387 31.2618 0.826894 28.1503 0.285767C27.767 0.962176 27.316 1.8866 27.0229 2.63065C23.7311 2.13462 20.4617 2.13462 17.2375 2.63065C16.9219 1.8866 16.4709 0.962176 16.0876 0.285767C12.9762 0.826894 10.0225 1.77387 7.24922 3.05905C1.65757 11.4916 0.146919 19.7213 0.89097 27.8157C4.61122 30.589 8.1962 32.2575 11.7361 33.3623C12.6154 32.1673 13.382 30.8821 14.0584 29.5518C12.7732 29.0783 11.5557 28.4696 10.4058 27.7706C10.7215 27.5452 11.0146 27.2971 11.3077 27.0717C18.3649 30.3635 26.0083 30.3635 32.9753 27.0717C33.2684 27.3197 33.5615 27.5452 33.8772 27.7706C32.7273 28.4696 31.4872 29.0558 30.2246 29.5518C30.901 30.8821 31.6676 32.1673 32.5469 33.3623C36.0868 32.2575 39.6943 30.589 43.392 27.8157C44.2714 18.4136 41.8814 10.2741 37.0338 3.05905H36.9887ZM15.0054 22.8554C12.886 22.8554 11.1499 20.8938 11.1499 18.4813C11.1499 16.0687 12.8409 14.1071 15.0054 14.1071C17.1699 14.1071 18.8835 16.0687 18.8609 18.4813C18.8609 20.8712 17.1699 22.8554 15.0054 22.8554ZM29.2325 22.8554C27.1131 22.8554 25.377 20.8938 25.377 18.4813C25.377 16.0687 27.068 14.1071 29.2325 14.1071C31.397 14.1071 33.1106 16.0687 33.0881 18.4813C33.0881 20.8712 31.397 22.8554 29.2325 22.8554Z" fill="black"/>
</svg>
