<svg width="43" height="42" viewBox="0 0 43 42" fill="none" xmlns="http://www.w3.org/2000/svg">
<path d="M21.7832 0.759916C16.7509 0.740936 11.877 2.51842 8.03845 5.77256C4.19988 9.0267 1.64859 13.5439 0.843595 18.5114C0.0386047 23.4789 1.03276 28.5706 3.6472 32.8705C6.26164 37.1703 10.3247 40.3961 15.1055 41.9673C16.1621 42.1364 16.5002 41.4813 16.5002 40.9107V37.3394C10.6466 38.6073 9.39982 34.5711 9.39982 34.5711C9.00517 33.2586 8.14965 32.133 6.99078 31.4013C5.06776 30.0911 7.1387 30.1334 7.1387 30.1334C7.80203 30.2192 8.43739 30.4538 8.99727 30.8198C9.55715 31.1857 10.0271 31.6735 10.3719 32.2466C10.9589 33.2903 11.9342 34.0601 13.0858 34.3886C14.2373 34.717 15.472 34.5776 16.5213 34.0005C16.6176 32.9293 17.0891 31.9264 17.8526 31.1689C13.3304 30.7039 8.30096 28.8866 8.30096 20.8353C8.23983 18.7252 8.99704 16.6732 10.4142 15.1085C9.77077 13.29 9.84636 11.2944 10.6255 9.52969C10.6255 9.52969 12.4006 8.95913 16.4368 11.6429C19.8973 10.7126 23.5422 10.7126 27.0028 11.6429C31.039 8.91687 32.8141 9.52969 32.8141 9.52969C33.5932 11.2944 33.6688 13.29 33.0254 15.1085C34.4425 16.6732 35.1997 18.7252 35.1386 20.8353C35.1386 28.9077 30.1937 30.6828 25.4813 31.2111C25.9888 31.7213 26.3814 32.334 26.6329 33.0082C26.8844 33.6824 26.9889 34.4026 26.9394 35.1205V40.9107C26.9394 41.4813 27.2775 42.1575 28.3552 41.9673C33.1272 40.3988 37.1845 37.1818 39.7995 32.893C42.4145 28.6042 43.4162 23.5241 42.6251 18.5637C41.8339 13.6032 39.3017 9.08678 35.4823 5.82418C31.663 2.56158 26.8063 0.766183 21.7832 0.759916Z" fill="black"/>
</svg>
