<svg width="26" height="26" viewBox="0 0 26 26" fill="none" xmlns="http://www.w3.org/2000/svg">
<path fill-rule="evenodd" clip-rule="evenodd" d="M22.1291 6.45161C22.1291 7.87682 20.9736 9.03226 19.5484 9.03226C18.1232 9.03226 16.9678 7.87682 16.9678 6.45161C16.9678 5.02641 18.1232 3.87097 19.5484 3.87097C20.9736 3.87097 22.1291 5.02641 22.1291 6.45161Z" fill="black" stroke="black" stroke-width="0.5" stroke-linecap="round" stroke-linejoin="round"/>
<mask id="path-2-inside-1_68_162" fill="white">
<path d="M25.3756 7.07596C25.7204 7.07596 25.9999 6.79642 25.9999 6.45161C25.9999 6.10681 25.7204 5.82726 25.3756 5.82726V7.07596ZM23.9187 5.82726C23.5739 5.82726 23.2944 6.10681 23.2944 6.45161C23.2944 6.79642 23.5739 7.07596 23.9187 7.07596V5.82726ZM15.1778 7.07596C15.5227 7.07596 15.8022 6.79642 15.8022 6.45161C15.8022 6.10681 15.5227 5.82726 15.1778 5.82726V7.07596ZM13.721 5.82726C13.3762 5.82726 13.0967 6.10681 13.0967 6.45161C13.0967 6.79642 13.3762 7.07596 13.721 7.07596V5.82726ZM20.1726 0.62435C20.1726 0.279534 19.8931 0 19.5483 0C19.2035 0 18.9239 0.279534 18.9239 0.62435H20.1726ZM18.9239 2.08117C18.9239 2.42598 19.2035 2.70552 19.5483 2.70552C19.8931 2.70552 20.1726 2.42598 20.1726 2.08117H18.9239ZM20.1726 10.8221C20.1726 10.4773 19.8931 10.1977 19.5483 10.1977C19.2035 10.1977 18.9239 10.4773 18.9239 10.8221H20.1726ZM18.9239 12.2789C18.9239 12.6237 19.2035 12.9032 19.5483 12.9032C19.8931 12.9032 20.1726 12.6237 20.1726 12.2789H18.9239ZM24.1105 2.77239C24.3543 2.52857 24.3543 2.13324 24.1105 1.88942C23.8666 1.6456 23.4714 1.6456 23.2275 1.88942L24.1105 2.77239ZM22.197 2.92002C21.9531 3.16384 21.9531 3.55916 22.197 3.80298C22.4408 4.0468 22.836 4.0468 23.0799 3.80298L22.197 2.92002ZM16.8997 9.98318C17.1435 9.73935 17.1435 9.3441 16.8997 9.10027C16.6558 8.85644 16.2605 8.85644 16.0167 9.10027L16.8997 9.98318ZM14.9861 10.1309C14.7423 10.3747 14.7423 10.7699 14.9861 11.0138C15.2299 11.2576 15.6252 11.2576 15.8691 11.0138L14.9861 10.1309ZM15.8691 1.88942C15.6252 1.6456 15.2299 1.6456 14.9861 1.88942C14.7423 2.13324 14.7423 2.52857 14.9861 2.77239L15.8691 1.88942ZM16.0167 3.80298C16.2605 4.0468 16.6558 4.0468 16.8997 3.80298C17.1435 3.55916 17.1435 3.16384 16.8997 2.92002L16.0167 3.80298ZM23.0807 9.1011C22.8369 8.85727 22.4416 8.85727 22.1978 9.1011C21.954 9.34493 21.954 9.74019 22.1978 9.98402L23.0807 9.1011ZM23.2275 11.0138C23.4714 11.2576 23.8666 11.2576 24.1105 11.0138C24.3543 10.7699 24.3543 10.3747 24.1105 10.1309L23.2275 11.0138ZM25.3756 5.82726H23.9187V7.07596H25.3756V5.82726ZM15.1778 5.82726H13.721V7.07596H15.1778V5.82726ZM18.9239 0.62435V2.08117H20.1726V0.62435H18.9239ZM18.9239 10.8221V12.2789H20.1726V10.8221H18.9239ZM23.2275 1.88942L22.197 2.92002L23.0799 3.80298L24.1105 2.77239L23.2275 1.88942ZM16.0167 9.10027L14.9861 10.1309L15.8691 11.0138L16.8997 9.98318L16.0167 9.10027ZM14.9861 2.77239L16.0167 3.80298L16.8997 2.92002L15.8691 1.88942L14.9861 2.77239ZM22.1978 9.98402L23.2275 11.0138L24.1105 10.1309L23.0807 9.1011L22.1978 9.98402Z"/>
</mask>
<path d="M25.3756 7.07596C25.7204 7.07596 25.9999 6.79642 25.9999 6.45161C25.9999 6.10681 25.7204 5.82726 25.3756 5.82726V7.07596ZM23.9187 5.82726C23.5739 5.82726 23.2944 6.10681 23.2944 6.45161C23.2944 6.79642 23.5739 7.07596 23.9187 7.07596V5.82726ZM15.1778 7.07596C15.5227 7.07596 15.8022 6.79642 15.8022 6.45161C15.8022 6.10681 15.5227 5.82726 15.1778 5.82726V7.07596ZM13.721 5.82726C13.3762 5.82726 13.0967 6.10681 13.0967 6.45161C13.0967 6.79642 13.3762 7.07596 13.721 7.07596V5.82726ZM20.1726 0.62435C20.1726 0.279534 19.8931 0 19.5483 0C19.2035 0 18.9239 0.279534 18.9239 0.62435H20.1726ZM18.9239 2.08117C18.9239 2.42598 19.2035 2.70552 19.5483 2.70552C19.8931 2.70552 20.1726 2.42598 20.1726 2.08117H18.9239ZM20.1726 10.8221C20.1726 10.4773 19.8931 10.1977 19.5483 10.1977C19.2035 10.1977 18.9239 10.4773 18.9239 10.8221H20.1726ZM18.9239 12.2789C18.9239 12.6237 19.2035 12.9032 19.5483 12.9032C19.8931 12.9032 20.1726 12.6237 20.1726 12.2789H18.9239ZM24.1105 2.77239C24.3543 2.52857 24.3543 2.13324 24.1105 1.88942C23.8666 1.6456 23.4714 1.6456 23.2275 1.88942L24.1105 2.77239ZM22.197 2.92002C21.9531 3.16384 21.9531 3.55916 22.197 3.80298C22.4408 4.0468 22.836 4.0468 23.0799 3.80298L22.197 2.92002ZM16.8997 9.98318C17.1435 9.73935 17.1435 9.3441 16.8997 9.10027C16.6558 8.85644 16.2605 8.85644 16.0167 9.10027L16.8997 9.98318ZM14.9861 10.1309C14.7423 10.3747 14.7423 10.7699 14.9861 11.0138C15.2299 11.2576 15.6252 11.2576 15.8691 11.0138L14.9861 10.1309ZM15.8691 1.88942C15.6252 1.6456 15.2299 1.6456 14.9861 1.88942C14.7423 2.13324 14.7423 2.52857 14.9861 2.77239L15.8691 1.88942ZM16.0167 3.80298C16.2605 4.0468 16.6558 4.0468 16.8997 3.80298C17.1435 3.55916 17.1435 3.16384 16.8997 2.92002L16.0167 3.80298ZM23.0807 9.1011C22.8369 8.85727 22.4416 8.85727 22.1978 9.1011C21.954 9.34493 21.954 9.74019 22.1978 9.98402L23.0807 9.1011ZM23.2275 11.0138C23.4714 11.2576 23.8666 11.2576 24.1105 11.0138C24.3543 10.7699 24.3543 10.3747 24.1105 10.1309L23.2275 11.0138ZM25.3756 5.82726H23.9187V7.07596H25.3756V5.82726ZM15.1778 5.82726H13.721V7.07596H15.1778V5.82726ZM18.9239 0.62435V2.08117H20.1726V0.62435H18.9239ZM18.9239 10.8221V12.2789H20.1726V10.8221H18.9239ZM23.2275 1.88942L22.197 2.92002L23.0799 3.80298L24.1105 2.77239L23.2275 1.88942ZM16.0167 9.10027L14.9861 10.1309L15.8691 11.0138L16.8997 9.98318L16.0167 9.10027ZM14.9861 2.77239L16.0167 3.80298L16.8997 2.92002L15.8691 1.88942L14.9861 2.77239ZM22.1978 9.98402L23.2275 11.0138L24.1105 10.1309L23.0807 9.1011L22.1978 9.98402Z" fill="black"/>
<path d="M22.8756 5.82726V7.07596H27.8756V5.82726H22.8756ZM26.4187 7.07596V5.82726H21.4187V7.07596H26.4187ZM12.6778 5.82726V7.07596H17.6778V5.82726H12.6778ZM16.221 7.07596V5.82726H11.221V7.07596H16.221ZM18.9239 3.12435H20.1726V-1.87565H18.9239V3.12435ZM20.1726 -0.418835H18.9239V4.58117H20.1726V-0.418835ZM18.9239 13.3221H20.1726V8.32206H18.9239V13.3221ZM20.1726 9.77888H18.9239V14.7789H20.1726V9.77888ZM21.4597 3.65714L22.3426 4.5401L25.8783 1.00467L24.9954 0.121706L21.4597 3.65714ZM24.8477 2.03526L23.9648 1.1523L20.4291 4.68773L21.312 5.5707L24.8477 2.03526ZM14.249 10.8681L15.1319 11.751L18.6674 8.21537L17.7844 7.33245L14.249 10.8681ZM17.6368 9.24596L16.7538 8.36305L13.2184 11.8987L14.1013 12.7816L17.6368 9.24596ZM16.7539 4.54015L17.6368 3.65719L14.1013 0.121657L13.2183 1.00462L16.7539 4.54015ZM15.1319 1.15225L14.2489 2.03521L17.7845 5.57075L18.6674 4.68778L15.1319 1.15225ZM23.9655 11.7518L24.8485 10.8689L21.3129 7.33334L20.43 8.21625L23.9655 11.7518ZM22.3427 8.3631L21.4598 9.24601L24.9953 12.7815L25.8782 11.8986L22.3427 8.3631ZM24.1105 2.77239L20.575 -0.763207L20.5749 -0.763148L24.1105 2.77239ZM23.2275 1.88942L19.6921 -1.64617L19.692 -1.64611L23.2275 1.88942ZM22.197 2.92002L25.7324 6.45561L25.7325 6.45555L22.197 2.92002ZM23.0799 3.80298L26.6153 7.33857L26.6154 7.33852L23.0799 3.80298ZM16.8997 9.98318L20.4352 13.5187L20.4353 13.5187L16.8997 9.98318ZM16.0167 9.10027L19.5522 12.6358L19.5523 12.6357L16.0167 9.10027ZM14.9861 10.1309L11.4506 6.59533L11.4505 6.59539L14.9861 10.1309ZM15.8691 11.0138L12.3335 7.47825L12.3335 7.4783L15.8691 11.0138ZM14.9861 2.77239L11.4506 6.30792L11.4506 6.30792L14.9861 2.77239ZM16.0167 3.80298L19.5522 0.267446L19.5522 0.267446L16.0167 3.80298ZM23.0807 9.1011L19.5452 12.6366L19.5452 12.6366L23.0807 9.1011ZM22.1978 9.98402L25.7333 6.44848L25.7333 6.44848L22.1978 9.98402ZM23.2275 11.0138L19.692 14.5493L19.692 14.5493L23.2275 11.0138ZM24.1105 10.1309L27.646 6.59533L27.646 6.59533L24.1105 10.1309ZM25.3756 12.076C28.4818 12.076 30.9999 9.55784 30.9999 6.45161H20.9999C20.9999 4.035 22.9589 2.07596 25.3756 2.07596V12.076ZM30.9999 6.45161C30.9999 3.34538 28.4818 0.827263 25.3756 0.827263V10.8273C22.9589 10.8273 20.9999 8.86823 20.9999 6.45161H30.9999ZM23.9187 0.827263C20.8125 0.827263 18.2944 3.34538 18.2944 6.45161H28.2944C28.2944 8.86823 26.3354 10.8273 23.9187 10.8273V0.827263ZM18.2944 6.45161C18.2944 9.55784 20.8125 12.076 23.9187 12.076V2.07596C26.3354 2.07596 28.2944 4.035 28.2944 6.45161H18.2944ZM15.1778 12.076C18.2841 12.076 20.8022 9.5578 20.8022 6.45161H10.8022C10.8022 4.03504 12.7612 2.07596 15.1778 2.07596V12.076ZM20.8022 6.45161C20.8022 3.34543 18.2841 0.827263 15.1778 0.827263V10.8273C12.7612 10.8273 10.8022 8.86819 10.8022 6.45161H20.8022ZM13.721 0.827263C10.6147 0.827263 8.09668 3.34543 8.09668 6.45161H18.0967C18.0967 8.86819 16.1377 10.8273 13.721 10.8273V0.827263ZM8.09668 6.45161C8.09668 9.5578 10.6147 12.076 13.721 12.076V2.07596C16.1377 2.07596 18.0967 4.03504 18.0967 6.45161H8.09668ZM25.1726 0.62435C25.1726 -2.48193 22.6545 -5 19.5483 -5V5C17.1317 5 15.1726 3.041 15.1726 0.62435H25.1726ZM19.5483 -5C16.4421 -5 13.9239 -2.48193 13.9239 0.62435H23.9239C23.9239 3.041 21.9649 5 19.5483 5V-5ZM13.9239 2.08117C13.9239 5.18745 16.4421 7.70552 19.5483 7.70552V-2.29448C21.9649 -2.29448 23.9239 -0.335486 23.9239 2.08117H13.9239ZM19.5483 7.70552C22.6545 7.70552 25.1726 5.18745 25.1726 2.08117H15.1726C15.1726 -0.335486 17.1317 -2.29448 19.5483 -2.29448V7.70552ZM25.1726 10.8221C25.1726 7.71583 22.6545 5.19771 19.5483 5.19771V15.1977C17.1317 15.1977 15.1726 13.2387 15.1726 10.8221H25.1726ZM19.5483 5.19771C16.4421 5.19771 13.9239 7.71583 13.9239 10.8221H23.9239C23.9239 13.2387 21.9649 15.1977 19.5483 15.1977V5.19771ZM13.9239 12.2789C13.9239 15.3851 16.4421 17.9032 19.5483 17.9032V7.90323C21.9649 7.90323 23.9239 9.86226 23.9239 12.2789H13.9239ZM19.5483 17.9032C22.6545 17.9032 25.1726 15.3851 25.1726 12.2789H15.1726C15.1726 9.86226 17.1317 7.90323 19.5483 7.90323V17.9032ZM27.6459 6.30798C29.8425 4.11152 29.8425 0.550286 27.6459 -1.64617L20.575 5.42502C18.8661 3.7162 18.8661 0.945607 20.575 -0.763207L27.6459 6.30798ZM27.6459 -1.64617C25.4495 -3.84253 21.8885 -3.84253 19.6921 -1.64617L26.763 5.42502C25.0542 7.13374 22.2838 7.13374 20.575 5.42502L27.6459 -1.64617ZM18.6615 -0.615578C16.4649 1.58088 16.4649 5.14212 18.6615 7.33857L25.7324 0.267386C27.4413 1.9762 27.4413 4.7468 25.7324 6.45561L18.6615 -0.615578ZM18.6615 7.33857C20.8579 9.53494 24.4189 9.53494 26.6153 7.33857L19.5444 0.267386C21.2532 -1.44133 24.0236 -1.44133 25.7324 0.267386L18.6615 7.33857ZM20.4353 13.5187C22.6316 11.3222 22.6316 7.76123 20.4353 5.5648L13.3641 12.6357C11.6553 10.927 11.6553 8.15649 13.3641 6.44771L20.4353 13.5187ZM20.4353 5.5648C18.2388 3.36827 14.6776 3.36827 12.4811 5.5648L19.5523 12.6357C17.8435 14.3446 15.0729 14.3446 13.3641 12.6357L20.4353 5.5648ZM11.4505 6.59539C9.25415 8.79183 9.25415 12.3528 11.4505 14.5493L18.5217 7.4783C20.2304 9.18708 20.2304 11.9576 18.5217 13.6663L11.4505 6.59539ZM11.4505 14.5493C13.647 16.7458 17.2082 16.7458 19.4047 14.5493L12.3335 7.4783C14.0423 5.76943 16.8129 5.76943 18.5217 7.4783L11.4505 14.5493ZM19.4046 -1.64611C17.2082 -3.84255 13.647 -3.84255 11.4506 -1.64611L18.5216 5.42496C16.8128 7.13376 14.0423 7.13376 12.3335 5.42496L19.4046 -1.64611ZM11.4506 -1.64611C9.25413 0.550332 9.25413 4.11148 11.4506 6.30792L18.5216 -0.763147C20.2304 0.945654 20.2304 3.71616 18.5216 5.42496L11.4506 -1.64611ZM12.4812 7.33851C14.6776 9.53496 18.2388 9.53496 20.4352 7.33851L13.3641 0.267446C15.0729 -1.44135 17.8434 -1.44135 19.5522 0.267446L12.4812 7.33851ZM20.4352 7.33851C22.6316 5.14207 22.6316 1.58093 20.4352 -0.615517L13.3641 6.45555C11.6553 4.74675 11.6553 1.97625 13.3641 0.267446L20.4352 7.33851ZM26.6162 5.56557C24.4198 3.36912 20.8587 3.36912 18.6622 5.56557L25.7333 12.6366C24.0245 14.3454 21.254 14.3454 19.5452 12.6366L26.6162 5.56557ZM18.6622 5.56557C16.4658 7.76202 16.4658 11.3231 18.6622 13.5196L25.7333 6.44848C27.4421 8.15727 27.4421 10.9278 25.7333 12.6366L18.6622 5.56557ZM19.692 14.5493C21.8885 16.7458 25.4495 16.7458 27.646 14.5493L20.5749 7.47824C22.2837 5.76945 25.0543 5.76945 26.7631 7.47824L19.692 14.5493ZM27.646 14.5493C29.8424 12.3529 29.8424 8.79178 27.646 6.59533L20.5749 13.6664C18.8661 11.9576 18.8661 9.18704 20.5749 7.47824L27.646 14.5493ZM25.3756 0.827263H23.9187V10.8273H25.3756V0.827263ZM23.9187 12.076H25.3756V2.07596H23.9187V12.076ZM15.1778 0.827263H13.721V10.8273H15.1778V0.827263ZM13.721 12.076H15.1778V2.07596H13.721V12.076ZM13.9239 0.62435V2.08117H23.9239V0.62435H13.9239ZM25.1726 2.08117V0.62435H15.1726V2.08117H25.1726ZM13.9239 10.8221V12.2789H23.9239V10.8221H13.9239ZM25.1726 12.2789V10.8221H15.1726V12.2789H25.1726ZM19.692 -1.64611L18.6614 -0.615519L25.7325 6.45555L26.7631 5.42496L19.692 -1.64611ZM26.6154 7.33852L27.646 6.30792L20.5749 -0.763148L19.5443 0.267445L26.6154 7.33852ZM12.4812 5.56474L11.4506 6.59533L18.5216 13.6664L19.5522 12.6358L12.4812 5.56474ZM19.4046 14.5493L20.4352 13.5187L13.3641 6.44765L12.3335 7.47825L19.4046 14.5493ZM11.4506 6.30792L12.4812 7.33851L19.5522 0.267446L18.5216 -0.763148L11.4506 6.30792ZM20.4352 -0.615517L19.4046 -1.64611L12.3335 5.42496L13.3641 6.45555L20.4352 -0.615517ZM18.6622 13.5195L19.692 14.5493L26.7631 7.47825L25.7333 6.44848L18.6622 13.5195ZM27.646 6.59533L26.6162 5.56557L19.5452 12.6366L20.5749 13.6664L27.646 6.59533Z" fill="black" mask="url(#path-2-inside-1_68_162)"/>
<path d="M1 13.2901C1 19.7573 6.24271 25 12.7099 25C17.6374 25 21.854 21.9565 23.5826 17.6468C22.2338 18.1889 20.758 18.4944 19.2154 18.4944C12.7482 18.4944 7.50551 13.2517 7.50551 6.78447C7.50551 5.24911 7.80651 3.76483 8.34371 2.42127C4.03904 4.15215 1 8.36622 1 13.2901Z" stroke="black" stroke-width="2" stroke-linecap="round" stroke-linejoin="round"/>
</svg>
